<?xml version="1.0" encoding="UTF-8"?>
<!DOCTYPE svg PUBLIC "-//W3C//DTD SVG 1.1//EN" "http://www.w3.org/Graphics/SVG/1.1/DTD/svg11.dtd">
<svg xmlns="http://www.w3.org/2000/svg" version="1.1" width="2000px" height="2000px" style="shape-rendering:geometricPrecision; text-rendering:geometricPrecision; image-rendering:optimizeQuality; fill-rule:evenodd; clip-rule:evenodd" xmlns:xlink="http://www.w3.org/1999/xlink">
<g><path style="opacity:1" fill="#919291" d="M -0.5,-0.5 C 20.1667,-0.5 40.8333,-0.5 61.5,-0.5C 61.5,20.1667 61.5,40.8333 61.5,61.5C 40.8333,61.5 20.1667,61.5 -0.5,61.5C -0.5,40.8333 -0.5,20.1667 -0.5,-0.5 Z"/></g>
<g><path style="opacity:1" fill="#7e7e7e" d="M 61.5,-0.5 C 457.5,-0.5 853.5,-0.5 1249.5,-0.5C 1249.5,20.1667 1249.5,40.8333 1249.5,61.5C 1249.5,82.5 1249.5,103.5 1249.5,124.5C 1228.5,124.5 1207.5,124.5 1186.5,124.5C 1186.5,103.5 1186.5,82.5 1186.5,61.5C 811.5,61.5 436.5,61.5 61.5,61.5C 61.5,40.8333 61.5,20.1667 61.5,-0.5 Z"/></g>
<g><path style="opacity:1" fill="#7d7d7d" d="M -0.5,61.5 C 20.1667,61.5 40.8333,61.5 61.5,61.5C 61.5,665.833 61.5,1270.17 61.5,1874.5C 40.8333,1874.5 20.1667,1874.5 -0.5,1874.5C -0.5,1270.17 -0.5,665.833 -0.5,61.5 Z"/></g>
<g><path style="opacity:1" fill="#fefffe" d="M 61.5,61.5 C 436.5,61.5 811.5,61.5 1186.5,61.5C 1186.5,82.5 1186.5,103.5 1186.5,124.5C 1186.5,186.833 1186.5,249.167 1186.5,311.5C 1186.5,332.5 1186.5,353.5 1186.5,374.5C 1186.5,395.167 1186.5,415.833 1186.5,436.5C 1290.83,436.5 1395.17,436.5 1499.5,436.5C 1499.5,457.5 1499.5,478.5 1499.5,499.5C 1499.5,561.833 1499.5,624.167 1499.5,686.5C 1499.5,707.5 1499.5,728.5 1499.5,749.5C 1499.5,770.167 1499.5,790.833 1499.5,811.5C 1478.5,811.5 1457.5,811.5 1436.5,811.5C 1436.5,769.833 1436.5,728.167 1436.5,686.5C 1436.5,665.833 1436.5,645.167 1436.5,624.5C 1436.5,603.5 1436.5,582.5 1436.5,561.5C 1415.83,561.5 1395.17,561.5 1374.5,561.5C 1353.5,561.5 1332.5,561.5 1311.5,561.5C 1228.17,561.5 1144.83,561.5 1061.5,561.5C 1040.83,561.5 1020.17,561.5 999.5,561.5C 999.5,519.833 999.5,478.167 999.5,436.5C 999.5,415.833 999.5,395.167 999.5,374.5C 999.5,353.5 999.5,332.5 999.5,311.5C 999.5,290.833 999.5,270.167 999.5,249.5C 978.5,249.5 957.5,249.5 936.5,249.5C 936.5,228.5 936.5,207.5 936.5,186.5C 915.833,186.5 895.167,186.5 874.5,186.5C 853.5,186.5 832.5,186.5 811.5,186.5C 769.833,186.5 728.167,186.5 686.5,186.5C 665.833,186.5 645.167,186.5 624.5,186.5C 603.5,186.5 582.5,186.5 561.5,186.5C 561.5,207.5 561.5,228.5 561.5,249.5C 540.833,249.5 520.167,249.5 499.5,249.5C 499.5,270.167 499.5,290.833 499.5,311.5C 499.5,332.5 499.5,353.5 499.5,374.5C 499.5,395.167 499.5,415.833 499.5,436.5C 499.5,457.5 499.5,478.5 499.5,499.5C 499.5,561.833 499.5,624.167 499.5,686.5C 499.5,707.5 499.5,728.5 499.5,749.5C 499.5,791.167 499.5,832.833 499.5,874.5C 499.5,895.167 499.5,915.833 499.5,936.5C 457.833,936.5 416.167,936.5 374.5,936.5C 353.5,936.5 332.5,936.5 311.5,936.5C 290.833,936.5 270.167,936.5 249.5,936.5C 249.5,957.5 249.5,978.5 249.5,999.5C 228.5,999.5 207.5,999.5 186.5,999.5C 186.5,1020.17 186.5,1040.83 186.5,1061.5C 165.833,1061.5 145.167,1061.5 124.5,1061.5C 124.5,1082.5 124.5,1103.5 124.5,1124.5C 124.5,1207.83 124.5,1291.17 124.5,1374.5C 124.5,1395.17 124.5,1415.83 124.5,1436.5C 145.167,1436.5 165.833,1436.5 186.5,1436.5C 186.5,1457.5 186.5,1478.5 186.5,1499.5C 207.5,1499.5 228.5,1499.5 249.5,1499.5C 249.5,1520.17 249.5,1540.83 249.5,1561.5C 270.167,1561.5 290.833,1561.5 311.5,1561.5C 394.833,1561.5 478.167,1561.5 561.5,1561.5C 582.5,1561.5 603.5,1561.5 624.5,1561.5C 624.5,1540.83 624.5,1520.17 624.5,1499.5C 645.167,1499.5 665.833,1499.5 686.5,1499.5C 686.5,1478.5 686.5,1457.5 686.5,1436.5C 707.5,1436.5 728.5,1436.5 749.5,1436.5C 749.5,1415.83 749.5,1395.17 749.5,1374.5C 749.5,1291.17 749.5,1207.83 749.5,1124.5C 770.167,1124.5 790.833,1124.5 811.5,1124.5C 811.5,1145.17 811.5,1165.83 811.5,1186.5C 811.5,1207.5 811.5,1228.5 811.5,1249.5C 874.167,1249.5 936.833,1249.5 999.5,1249.5C 999.5,1270.17 999.5,1290.83 999.5,1311.5C 978.5,1311.5 957.5,1311.5 936.5,1311.5C 936.5,1332.5 936.5,1353.5 936.5,1374.5C 915.833,1374.5 895.167,1374.5 874.5,1374.5C 874.5,1416.17 874.5,1457.83 874.5,1499.5C 853.5,1499.5 832.5,1499.5 811.5,1499.5C 811.5,1520.17 811.5,1540.83 811.5,1561.5C 790.833,1561.5 770.167,1561.5 749.5,1561.5C 749.5,1582.5 749.5,1603.5 749.5,1624.5C 728.5,1624.5 707.5,1624.5 686.5,1624.5C 603.167,1624.5 519.833,1624.5 436.5,1624.5C 436.5,1645.17 436.5,1665.83 436.5,1686.5C 415.833,1686.5 395.167,1686.5 374.5,1686.5C 353.5,1686.5 332.5,1686.5 311.5,1686.5C 311.5,1707.5 311.5,1728.5 311.5,1749.5C 332.5,1749.5 353.5,1749.5 374.5,1749.5C 374.5,1770.17 374.5,1790.83 374.5,1811.5C 395.167,1811.5 415.833,1811.5 436.5,1811.5C 457.5,1811.5 478.5,1811.5 499.5,1811.5C 520.167,1811.5 540.833,1811.5 561.5,1811.5C 561.5,1790.83 561.5,1770.17 561.5,1749.5C 582.5,1749.5 603.5,1749.5 624.5,1749.5C 645.167,1749.5 665.833,1749.5 686.5,1749.5C 707.5,1749.5 728.5,1749.5 749.5,1749.5C 832.833,1749.5 916.167,1749.5 999.5,1749.5C 999.5,1728.5 999.5,1707.5 999.5,1686.5C 1020.17,1686.5 1040.83,1686.5 1061.5,1686.5C 1061.5,1665.83 1061.5,1645.17 1061.5,1624.5C 1082.5,1624.5 1103.5,1624.5 1124.5,1624.5C 1124.5,1603.5 1124.5,1582.5 1124.5,1561.5C 1145.17,1561.5 1165.83,1561.5 1186.5,1561.5C 1186.5,1519.83 1186.5,1478.17 1186.5,1436.5C 1207.5,1436.5 1228.5,1436.5 1249.5,1436.5C 1249.5,1415.83 1249.5,1395.17 1249.5,1374.5C 1270.17,1374.5 1290.83,1374.5 1311.5,1374.5C 1311.5,1353.5 1311.5,1332.5 1311.5,1311.5C 1332.5,1311.5 1353.5,1311.5 1374.5,1311.5C 1374.5,1290.83 1374.5,1270.17 1374.5,1249.5C 1395.17,1249.5 1415.83,1249.5 1436.5,1249.5C 1436.5,1228.5 1436.5,1207.5 1436.5,1186.5C 1457.5,1186.5 1478.5,1186.5 1499.5,1186.5C 1499.5,1415.83 1499.5,1645.17 1499.5,1874.5C 1020.17,1874.5 540.833,1874.5 61.5,1874.5C 61.5,1270.17 61.5,665.833 61.5,61.5 Z"/></g>
<g><path style="opacity:1" fill="#000000" d="M 1249.5,61.5 C 1270.17,61.5 1290.83,61.5 1311.5,61.5C 1311.5,82.5 1311.5,103.5 1311.5,124.5C 1290.83,124.5 1270.17,124.5 1249.5,124.5C 1249.5,103.5 1249.5,82.5 1249.5,61.5 Z"/></g>
<g><path style="opacity:1" fill="#959695" d="M 1249.5,124.5 C 1270.17,124.5 1290.83,124.5 1311.5,124.5C 1311.5,145.167 1311.5,165.833 1311.5,186.5C 1290.83,186.5 1270.17,186.5 1249.5,186.5C 1249.5,165.833 1249.5,145.167 1249.5,124.5 Z"/></g>
<g><path style="opacity:1" fill="#000000" d="M 1311.5,124.5 C 1332.5,124.5 1353.5,124.5 1374.5,124.5C 1374.5,145.167 1374.5,165.833 1374.5,186.5C 1353.5,186.5 1332.5,186.5 1311.5,186.5C 1311.5,165.833 1311.5,145.167 1311.5,124.5 Z"/></g>
<g><path style="opacity:1" fill="#bdd1d0" d="M 624.5,186.5 C 624.5,207.5 624.5,228.5 624.5,249.5C 603.5,249.5 582.5,249.5 561.5,249.5C 561.5,228.5 561.5,207.5 561.5,186.5C 582.5,186.5 603.5,186.5 624.5,186.5 Z"/></g>
<g><path style="opacity:1" fill="#690000" d="M 624.5,186.5 C 645.167,186.5 665.833,186.5 686.5,186.5C 686.5,207.5 686.5,228.5 686.5,249.5C 665.833,249.5 645.167,249.5 624.5,249.5C 624.5,228.5 624.5,207.5 624.5,186.5 Z"/></g>
<g><path style="opacity:1" fill="#700000" d="M 686.5,186.5 C 728.167,186.5 769.833,186.5 811.5,186.5C 811.5,207.5 811.5,228.5 811.5,249.5C 769.833,249.5 728.167,249.5 686.5,249.5C 686.5,228.5 686.5,207.5 686.5,186.5 Z"/></g>
<g><path style="opacity:1" fill="#690000" d="M 811.5,186.5 C 832.5,186.5 853.5,186.5 874.5,186.5C 874.5,207.5 874.5,228.5 874.5,249.5C 853.5,249.5 832.5,249.5 811.5,249.5C 811.5,228.5 811.5,207.5 811.5,186.5 Z"/></g>
<g><path style="opacity:1" fill="#bdd1d0" d="M 874.5,186.5 C 895.167,186.5 915.833,186.5 936.5,186.5C 936.5,207.5 936.5,228.5 936.5,249.5C 915.833,249.5 895.167,249.5 874.5,249.5C 874.5,228.5 874.5,207.5 874.5,186.5 Z"/></g>
<g><path style="opacity:1" fill="#6c6c6c" d="M 1186.5,124.5 C 1207.5,124.5 1228.5,124.5 1249.5,124.5C 1249.5,145.167 1249.5,165.833 1249.5,186.5C 1249.5,207.5 1249.5,228.5 1249.5,249.5C 1249.5,270.167 1249.5,290.833 1249.5,311.5C 1228.5,311.5 1207.5,311.5 1186.5,311.5C 1186.5,249.167 1186.5,186.833 1186.5,124.5 Z"/></g>
<g><path style="opacity:1" fill="#cfd0cf" d="M 1249.5,186.5 C 1270.17,186.5 1290.83,186.5 1311.5,186.5C 1311.5,207.5 1311.5,228.5 1311.5,249.5C 1290.83,249.5 1270.17,249.5 1249.5,249.5C 1249.5,228.5 1249.5,207.5 1249.5,186.5 Z"/></g>
<g><path style="opacity:1" fill="#8f908f" d="M 1311.5,186.5 C 1332.5,186.5 1353.5,186.5 1374.5,186.5C 1374.5,207.5 1374.5,228.5 1374.5,249.5C 1353.5,249.5 1332.5,249.5 1311.5,249.5C 1311.5,228.5 1311.5,207.5 1311.5,186.5 Z"/></g>
<g><path style="opacity:1" fill="#000000" d="M 1374.5,186.5 C 1395.17,186.5 1415.83,186.5 1436.5,186.5C 1436.5,207.5 1436.5,228.5 1436.5,249.5C 1415.83,249.5 1395.17,249.5 1374.5,249.5C 1374.5,228.5 1374.5,207.5 1374.5,186.5 Z"/></g>
<g><path style="opacity:1" fill="#bedcdb" d="M 561.5,249.5 C 561.5,270.167 561.5,290.833 561.5,311.5C 540.833,311.5 520.167,311.5 499.5,311.5C 499.5,290.833 499.5,270.167 499.5,249.5C 520.167,249.5 540.833,249.5 561.5,249.5 Z"/></g>
<g><path style="opacity:1" fill="#720000" d="M 561.5,249.5 C 582.5,249.5 603.5,249.5 624.5,249.5C 624.5,270.167 624.5,290.833 624.5,311.5C 603.5,311.5 582.5,311.5 561.5,311.5C 561.5,290.833 561.5,270.167 561.5,249.5 Z"/></g>
<g><path style="opacity:1" fill="#7f0000" d="M 624.5,249.5 C 645.167,249.5 665.833,249.5 686.5,249.5C 728.167,249.5 769.833,249.5 811.5,249.5C 832.5,249.5 853.5,249.5 874.5,249.5C 874.5,270.167 874.5,290.833 874.5,311.5C 895.167,311.5 915.833,311.5 936.5,311.5C 936.5,332.5 936.5,353.5 936.5,374.5C 915.833,374.5 895.167,374.5 874.5,374.5C 874.5,395.167 874.5,415.833 874.5,436.5C 853.5,436.5 832.5,436.5 811.5,436.5C 811.5,415.833 811.5,395.167 811.5,374.5C 749.167,374.5 686.833,374.5 624.5,374.5C 603.5,374.5 582.5,374.5 561.5,374.5C 561.5,353.5 561.5,332.5 561.5,311.5C 582.5,311.5 603.5,311.5 624.5,311.5C 624.5,290.833 624.5,270.167 624.5,249.5 Z"/></g>
<g><path style="opacity:1" fill="#720000" d="M 874.5,249.5 C 895.167,249.5 915.833,249.5 936.5,249.5C 936.5,270.167 936.5,290.833 936.5,311.5C 915.833,311.5 895.167,311.5 874.5,311.5C 874.5,290.833 874.5,270.167 874.5,249.5 Z"/></g>
<g><path style="opacity:1" fill="#bedcdb" d="M 936.5,249.5 C 957.5,249.5 978.5,249.5 999.5,249.5C 999.5,270.167 999.5,290.833 999.5,311.5C 978.5,311.5 957.5,311.5 936.5,311.5C 936.5,290.833 936.5,270.167 936.5,249.5 Z"/></g>
<g><path style="opacity:1" fill="#fefffe" d="M 1249.5,249.5 C 1270.17,249.5 1290.83,249.5 1311.5,249.5C 1311.5,270.167 1311.5,290.833 1311.5,311.5C 1332.5,311.5 1353.5,311.5 1374.5,311.5C 1374.5,332.5 1374.5,353.5 1374.5,374.5C 1332.83,374.5 1291.17,374.5 1249.5,374.5C 1249.5,353.5 1249.5,332.5 1249.5,311.5C 1249.5,290.833 1249.5,270.167 1249.5,249.5 Z"/></g>
<g><path style="opacity:1" fill="#c0c1c0" d="M 1311.5,249.5 C 1332.5,249.5 1353.5,249.5 1374.5,249.5C 1374.5,270.167 1374.5,290.833 1374.5,311.5C 1353.5,311.5 1332.5,311.5 1311.5,311.5C 1311.5,290.833 1311.5,270.167 1311.5,249.5 Z"/></g>
<g><path style="opacity:1" fill="#898a89" d="M 1374.5,249.5 C 1395.17,249.5 1415.83,249.5 1436.5,249.5C 1436.5,270.167 1436.5,290.833 1436.5,311.5C 1415.83,311.5 1395.17,311.5 1374.5,311.5C 1374.5,290.833 1374.5,270.167 1374.5,249.5 Z"/></g>
<g><path style="opacity:1" fill="#000000" d="M 1436.5,249.5 C 1457.5,249.5 1478.5,249.5 1499.5,249.5C 1499.5,270.167 1499.5,290.833 1499.5,311.5C 1478.5,311.5 1457.5,311.5 1436.5,311.5C 1436.5,290.833 1436.5,270.167 1436.5,249.5 Z"/></g>
<g><path style="opacity:1" fill="#670000" d="M 499.5,311.5 C 520.167,311.5 540.833,311.5 561.5,311.5C 561.5,332.5 561.5,353.5 561.5,374.5C 540.833,374.5 520.167,374.5 499.5,374.5C 499.5,353.5 499.5,332.5 499.5,311.5 Z"/></g>
<g><path style="opacity:1" fill="#670000" d="M 936.5,311.5 C 957.5,311.5 978.5,311.5 999.5,311.5C 999.5,332.5 999.5,353.5 999.5,374.5C 978.5,374.5 957.5,374.5 936.5,374.5C 936.5,353.5 936.5,332.5 936.5,311.5 Z"/></g>
<g><path style="opacity:1" fill="#777877" d="M 1186.5,311.5 C 1207.5,311.5 1228.5,311.5 1249.5,311.5C 1249.5,332.5 1249.5,353.5 1249.5,374.5C 1228.5,374.5 1207.5,374.5 1186.5,374.5C 1186.5,353.5 1186.5,332.5 1186.5,311.5 Z"/></g>
<g><path style="opacity:1" fill="#dcdddc" d="M 1374.5,311.5 C 1395.17,311.5 1415.83,311.5 1436.5,311.5C 1436.5,332.5 1436.5,353.5 1436.5,374.5C 1415.83,374.5 1395.17,374.5 1374.5,374.5C 1374.5,353.5 1374.5,332.5 1374.5,311.5 Z"/></g>
<g><path style="opacity:1" fill="#a5a6a5" d="M 1436.5,311.5 C 1457.5,311.5 1478.5,311.5 1499.5,311.5C 1499.5,332.5 1499.5,353.5 1499.5,374.5C 1478.5,374.5 1457.5,374.5 1436.5,374.5C 1436.5,353.5 1436.5,332.5 1436.5,311.5 Z"/></g>
<g><path style="opacity:1" fill="#000000" d="M 1499.5,311.5 C 1520.17,311.5 1540.83,311.5 1561.5,311.5C 1561.5,332.5 1561.5,353.5 1561.5,374.5C 1582.5,374.5 1603.5,374.5 1624.5,374.5C 1624.5,457.833 1624.5,541.167 1624.5,624.5C 1624.5,645.167 1624.5,665.833 1624.5,686.5C 1603.5,686.5 1582.5,686.5 1561.5,686.5C 1561.5,624.167 1561.5,561.833 1561.5,499.5C 1561.5,478.5 1561.5,457.5 1561.5,436.5C 1540.83,436.5 1520.17,436.5 1499.5,436.5C 1395.17,436.5 1290.83,436.5 1186.5,436.5C 1186.5,415.833 1186.5,395.167 1186.5,374.5C 1207.5,374.5 1228.5,374.5 1249.5,374.5C 1291.17,374.5 1332.83,374.5 1374.5,374.5C 1395.17,374.5 1415.83,374.5 1436.5,374.5C 1457.5,374.5 1478.5,374.5 1499.5,374.5C 1499.5,353.5 1499.5,332.5 1499.5,311.5 Z"/></g>
<g><path style="opacity:1" fill="#6e0000" d="M 499.5,374.5 C 520.167,374.5 540.833,374.5 561.5,374.5C 561.5,395.167 561.5,415.833 561.5,436.5C 540.833,436.5 520.167,436.5 499.5,436.5C 499.5,415.833 499.5,395.167 499.5,374.5 Z"/></g>
<g><path style="opacity:1" fill="#75aa98" d="M 561.5,374.5 C 582.5,374.5 603.5,374.5 624.5,374.5C 624.5,395.167 624.5,415.833 624.5,436.5C 603.5,436.5 582.5,436.5 561.5,436.5C 561.5,415.833 561.5,395.167 561.5,374.5 Z"/></g>
<g><path style="opacity:1" fill="#780000" d="M 624.5,374.5 C 686.833,374.5 749.167,374.5 811.5,374.5C 811.5,395.167 811.5,415.833 811.5,436.5C 790.833,436.5 770.167,436.5 749.5,436.5C 728.5,436.5 707.5,436.5 686.5,436.5C 665.833,436.5 645.167,436.5 624.5,436.5C 624.5,415.833 624.5,395.167 624.5,374.5 Z"/></g>
<g><path style="opacity:1" fill="#76aaa9" d="M 936.5,374.5 C 936.5,395.167 936.5,415.833 936.5,436.5C 915.833,436.5 895.167,436.5 874.5,436.5C 874.5,415.833 874.5,395.167 874.5,374.5C 895.167,374.5 915.833,374.5 936.5,374.5 Z"/></g>
<g><path style="opacity:1" fill="#6e0000" d="M 936.5,374.5 C 957.5,374.5 978.5,374.5 999.5,374.5C 999.5,395.167 999.5,415.833 999.5,436.5C 978.5,436.5 957.5,436.5 936.5,436.5C 936.5,415.833 936.5,395.167 936.5,374.5 Z"/></g>
<g><path style="opacity:1" fill="#5f0000" d="M 499.5,436.5 C 520.167,436.5 540.833,436.5 561.5,436.5C 561.5,457.5 561.5,478.5 561.5,499.5C 540.833,499.5 520.167,499.5 499.5,499.5C 499.5,478.5 499.5,457.5 499.5,436.5 Z"/></g>
<g><path style="opacity:1" fill="#fe00ff" d="M 561.5,436.5 C 582.5,436.5 603.5,436.5 624.5,436.5C 624.5,457.5 624.5,478.5 624.5,499.5C 603.5,499.5 582.5,499.5 561.5,499.5C 561.5,478.5 561.5,457.5 561.5,436.5 Z"/></g>
<g><path style="opacity:1" fill="#feff00" d="M 624.5,436.5 C 645.167,436.5 665.833,436.5 686.5,436.5C 686.5,457.5 686.5,478.5 686.5,499.5C 665.833,499.5 645.167,499.5 624.5,499.5C 624.5,478.5 624.5,457.5 624.5,436.5 Z"/></g>
<g><path style="opacity:1" fill="#b8e8fe" d="M 686.5,436.5 C 707.5,436.5 728.5,436.5 749.5,436.5C 749.5,457.5 749.5,478.5 749.5,499.5C 728.5,499.5 707.5,499.5 686.5,499.5C 686.5,478.5 686.5,457.5 686.5,436.5 Z"/></g>
<g><path style="opacity:1" fill="#c5f5f4" d="M 749.5,436.5 C 770.167,436.5 790.833,436.5 811.5,436.5C 811.5,457.5 811.5,478.5 811.5,499.5C 790.833,499.5 770.167,499.5 749.5,499.5C 749.5,478.5 749.5,457.5 749.5,436.5 Z"/></g>
<g><path style="opacity:1" fill="#59a7a6" d="M 811.5,436.5 C 832.5,436.5 853.5,436.5 874.5,436.5C 874.5,457.5 874.5,478.5 874.5,499.5C 853.5,499.5 832.5,499.5 811.5,499.5C 811.5,478.5 811.5,457.5 811.5,436.5 Z"/></g>
<g><path style="opacity:1" fill="#fe0000" d="M 874.5,436.5 C 895.167,436.5 915.833,436.5 936.5,436.5C 936.5,478.167 936.5,519.833 936.5,561.5C 936.5,582.5 936.5,603.5 936.5,624.5C 936.5,645.167 936.5,665.833 936.5,686.5C 915.833,686.5 895.167,686.5 874.5,686.5C 874.5,707.5 874.5,728.5 874.5,749.5C 853.5,749.5 832.5,749.5 811.5,749.5C 811.5,770.167 811.5,790.833 811.5,811.5C 811.5,832.5 811.5,853.5 811.5,874.5C 790.833,874.5 770.167,874.5 749.5,874.5C 749.5,853.5 749.5,832.5 749.5,811.5C 728.5,811.5 707.5,811.5 686.5,811.5C 686.5,769.833 686.5,728.167 686.5,686.5C 665.833,686.5 645.167,686.5 624.5,686.5C 624.5,644.833 624.5,603.167 624.5,561.5C 624.5,540.833 624.5,520.167 624.5,499.5C 645.167,499.5 665.833,499.5 686.5,499.5C 707.5,499.5 728.5,499.5 749.5,499.5C 770.167,499.5 790.833,499.5 811.5,499.5C 832.5,499.5 853.5,499.5 874.5,499.5C 874.5,478.5 874.5,457.5 874.5,436.5 Z"/></g>
<g><path style="opacity:1" fill="#600000" d="M 936.5,436.5 C 957.5,436.5 978.5,436.5 999.5,436.5C 999.5,478.167 999.5,519.833 999.5,561.5C 978.5,561.5 957.5,561.5 936.5,561.5C 936.5,519.833 936.5,478.167 936.5,436.5 Z"/></g>
<g><path style="opacity:1" fill="#e4e5e4" d="M 1499.5,436.5 C 1520.17,436.5 1540.83,436.5 1561.5,436.5C 1561.5,457.5 1561.5,478.5 1561.5,499.5C 1540.83,499.5 1520.17,499.5 1499.5,499.5C 1499.5,478.5 1499.5,457.5 1499.5,436.5 Z"/></g>
<g><path style="opacity:1" fill="#000070" d="M 1874.5,436.5 C 1874.5,457.5 1874.5,478.5 1874.5,499.5C 1853.5,499.5 1832.5,499.5 1811.5,499.5C 1811.5,478.5 1811.5,457.5 1811.5,436.5C 1832.5,436.5 1853.5,436.5 1874.5,436.5 Z"/></g>
<g><path style="opacity:1" fill="#000069" d="M 1874.5,436.5 C 1895.17,436.5 1915.83,436.5 1936.5,436.5C 1936.5,457.5 1936.5,478.5 1936.5,499.5C 1915.83,499.5 1895.17,499.5 1874.5,499.5C 1874.5,478.5 1874.5,457.5 1874.5,436.5 Z"/></g>
<g><path style="opacity:1" fill="#670000" d="M 499.5,499.5 C 520.167,499.5 540.833,499.5 561.5,499.5C 561.5,520.167 561.5,540.833 561.5,561.5C 561.5,603.167 561.5,644.833 561.5,686.5C 540.833,686.5 520.167,686.5 499.5,686.5C 499.5,624.167 499.5,561.833 499.5,499.5 Z"/></g>
<g><path style="opacity:1" fill="#b6f9db" d="M 561.5,499.5 C 582.5,499.5 603.5,499.5 624.5,499.5C 624.5,520.167 624.5,540.833 624.5,561.5C 603.5,561.5 582.5,561.5 561.5,561.5C 561.5,540.833 561.5,520.167 561.5,499.5 Z"/></g>
<g><path style="opacity:1" fill="#cecece" d="M 1499.5,499.5 C 1520.17,499.5 1540.83,499.5 1561.5,499.5C 1561.5,561.833 1561.5,624.167 1561.5,686.5C 1540.83,686.5 1520.17,686.5 1499.5,686.5C 1499.5,624.167 1499.5,561.833 1499.5,499.5 Z"/></g>
<g><path style="opacity:1" fill="#000069" d="M 1811.5,499.5 C 1811.5,520.167 1811.5,540.833 1811.5,561.5C 1790.83,561.5 1770.17,561.5 1749.5,561.5C 1749.5,540.833 1749.5,520.167 1749.5,499.5C 1770.17,499.5 1790.83,499.5 1811.5,499.5 Z"/></g>
<g><path style="opacity:1" fill="#feff00" d="M 1811.5,499.5 C 1832.5,499.5 1853.5,499.5 1874.5,499.5C 1874.5,520.167 1874.5,540.833 1874.5,561.5C 1853.5,561.5 1832.5,561.5 1811.5,561.5C 1811.5,540.833 1811.5,520.167 1811.5,499.5 Z"/></g>
<g><path style="opacity:1" fill="#000093" d="M 1874.5,499.5 C 1895.17,499.5 1915.83,499.5 1936.5,499.5C 1936.5,520.167 1936.5,540.833 1936.5,561.5C 1915.83,561.5 1895.17,561.5 1874.5,561.5C 1874.5,540.833 1874.5,520.167 1874.5,499.5 Z"/></g>
<g><path style="opacity:1" fill="#000000" d="M 1936.5,499.5 C 1957.5,499.5 1978.5,499.5 1999.5,499.5C 1999.5,561.833 1999.5,624.167 1999.5,686.5C 1978.5,686.5 1957.5,686.5 1936.5,686.5C 1936.5,665.833 1936.5,645.167 1936.5,624.5C 1936.5,603.5 1936.5,582.5 1936.5,561.5C 1936.5,540.833 1936.5,520.167 1936.5,499.5 Z"/></g>
<g><path style="opacity:1" fill="#bee2e2" d="M 561.5,561.5 C 582.5,561.5 603.5,561.5 624.5,561.5C 624.5,603.167 624.5,644.833 624.5,686.5C 603.5,686.5 582.5,686.5 561.5,686.5C 561.5,644.833 561.5,603.167 561.5,561.5 Z"/></g>
<g><path style="opacity:1" fill="#6f0000" d="M 936.5,561.5 C 957.5,561.5 978.5,561.5 999.5,561.5C 999.5,582.5 999.5,603.5 999.5,624.5C 978.5,624.5 957.5,624.5 936.5,624.5C 936.5,603.5 936.5,582.5 936.5,561.5 Z"/></g>
<g><path style="opacity:1" fill="#637473" d="M 999.5,561.5 C 1020.17,561.5 1040.83,561.5 1061.5,561.5C 1061.5,582.5 1061.5,603.5 1061.5,624.5C 1040.83,624.5 1020.17,624.5 999.5,624.5C 999.5,603.5 999.5,582.5 999.5,561.5 Z"/></g>
<g><path style="opacity:1" fill="#636463" d="M 1061.5,561.5 C 1144.83,561.5 1228.17,561.5 1311.5,561.5C 1311.5,582.5 1311.5,603.5 1311.5,624.5C 1228.17,624.5 1144.83,624.5 1061.5,624.5C 1061.5,603.5 1061.5,582.5 1061.5,561.5 Z"/></g>
<g><path style="opacity:1" fill="#6f706f" d="M 1311.5,561.5 C 1332.5,561.5 1353.5,561.5 1374.5,561.5C 1374.5,582.5 1374.5,603.5 1374.5,624.5C 1353.5,624.5 1332.5,624.5 1311.5,624.5C 1311.5,603.5 1311.5,582.5 1311.5,561.5 Z"/></g>
<g><path style="opacity:1" fill="#656665" d="M 1374.5,561.5 C 1395.17,561.5 1415.83,561.5 1436.5,561.5C 1436.5,582.5 1436.5,603.5 1436.5,624.5C 1415.83,624.5 1395.17,624.5 1374.5,624.5C 1374.5,603.5 1374.5,582.5 1374.5,561.5 Z"/></g>
<g><path style="opacity:1" fill="#000051" d="M 1749.5,561.5 C 1749.5,582.5 1749.5,603.5 1749.5,624.5C 1728.5,624.5 1707.5,624.5 1686.5,624.5C 1686.5,603.5 1686.5,582.5 1686.5,561.5C 1707.5,561.5 1728.5,561.5 1749.5,561.5 Z"/></g>
<g><path style="opacity:1" fill="#fefffe" d="M 1749.5,561.5 C 1770.17,561.5 1790.83,561.5 1811.5,561.5C 1811.5,582.5 1811.5,603.5 1811.5,624.5C 1790.83,624.5 1770.17,624.5 1749.5,624.5C 1749.5,603.5 1749.5,582.5 1749.5,561.5 Z"/></g>
<g><path style="opacity:1" fill="#0000ff" d="M 1811.5,561.5 C 1832.5,561.5 1853.5,561.5 1874.5,561.5C 1874.5,582.5 1874.5,603.5 1874.5,624.5C 1853.5,624.5 1832.5,624.5 1811.5,624.5C 1811.5,603.5 1811.5,582.5 1811.5,561.5 Z"/></g>
<g><path style="opacity:1" fill="#00007f" d="M 1874.5,561.5 C 1895.17,561.5 1915.83,561.5 1936.5,561.5C 1936.5,582.5 1936.5,603.5 1936.5,624.5C 1915.83,624.5 1895.17,624.5 1874.5,624.5C 1874.5,603.5 1874.5,582.5 1874.5,561.5 Z"/></g>
<g><path style="opacity:1" fill="#51807f" d="M 936.5,624.5 C 957.5,624.5 978.5,624.5 999.5,624.5C 999.5,645.167 999.5,665.833 999.5,686.5C 978.5,686.5 957.5,686.5 936.5,686.5C 936.5,665.833 936.5,645.167 936.5,624.5 Z"/></g>
<g><path style="opacity:1" fill="#fefffe" d="M 999.5,624.5 C 1020.17,624.5 1040.83,624.5 1061.5,624.5C 1144.83,624.5 1228.17,624.5 1311.5,624.5C 1311.5,645.167 1311.5,665.833 1311.5,686.5C 1290.83,686.5 1270.17,686.5 1249.5,686.5C 1249.5,707.5 1249.5,728.5 1249.5,749.5C 1228.5,749.5 1207.5,749.5 1186.5,749.5C 1103.17,749.5 1019.83,749.5 936.5,749.5C 936.5,728.5 936.5,707.5 936.5,686.5C 957.5,686.5 978.5,686.5 999.5,686.5C 999.5,665.833 999.5,645.167 999.5,624.5 Z"/></g>
<g><path style="opacity:1" fill="#5f605f" d="M 1311.5,624.5 C 1332.5,624.5 1353.5,624.5 1374.5,624.5C 1374.5,645.167 1374.5,665.833 1374.5,686.5C 1353.5,686.5 1332.5,686.5 1311.5,686.5C 1311.5,665.833 1311.5,645.167 1311.5,624.5 Z"/></g>
<g><path style="opacity:1" fill="#737473" d="M 1374.5,624.5 C 1395.17,624.5 1415.83,624.5 1436.5,624.5C 1436.5,645.167 1436.5,665.833 1436.5,686.5C 1415.83,686.5 1395.17,686.5 1374.5,686.5C 1374.5,665.833 1374.5,645.167 1374.5,624.5 Z"/></g>
<g><path style="opacity:1" fill="#00007f" d="M 1624.5,624.5 C 1645.17,624.5 1665.83,624.5 1686.5,624.5C 1686.5,645.167 1686.5,665.833 1686.5,686.5C 1665.83,686.5 1645.17,686.5 1624.5,686.5C 1624.5,665.833 1624.5,645.167 1624.5,624.5 Z"/></g>
<g><path style="opacity:1" fill="#fefffe" d="M 1686.5,624.5 C 1707.5,624.5 1728.5,624.5 1749.5,624.5C 1749.5,645.167 1749.5,665.833 1749.5,686.5C 1728.5,686.5 1707.5,686.5 1686.5,686.5C 1686.5,665.833 1686.5,645.167 1686.5,624.5 Z"/></g>
<g><path style="opacity:1" fill="#0000ff" d="M 1749.5,624.5 C 1770.17,624.5 1790.83,624.5 1811.5,624.5C 1811.5,645.167 1811.5,665.833 1811.5,686.5C 1811.5,707.5 1811.5,728.5 1811.5,749.5C 1790.83,749.5 1770.17,749.5 1749.5,749.5C 1749.5,770.167 1749.5,790.833 1749.5,811.5C 1728.5,811.5 1707.5,811.5 1686.5,811.5C 1686.5,832.5 1686.5,853.5 1686.5,874.5C 1665.83,874.5 1645.17,874.5 1624.5,874.5C 1624.5,895.167 1624.5,915.833 1624.5,936.5C 1603.5,936.5 1582.5,936.5 1561.5,936.5C 1561.5,957.5 1561.5,978.5 1561.5,999.5C 1540.83,999.5 1520.17,999.5 1499.5,999.5C 1499.5,1020.17 1499.5,1040.83 1499.5,1061.5C 1478.5,1061.5 1457.5,1061.5 1436.5,1061.5C 1436.5,1082.5 1436.5,1103.5 1436.5,1124.5C 1415.83,1124.5 1395.17,1124.5 1374.5,1124.5C 1374.5,1145.17 1374.5,1165.83 1374.5,1186.5C 1353.5,1186.5 1332.5,1186.5 1311.5,1186.5C 1311.5,1207.5 1311.5,1228.5 1311.5,1249.5C 1290.83,1249.5 1270.17,1249.5 1249.5,1249.5C 1249.5,1270.17 1249.5,1290.83 1249.5,1311.5C 1228.5,1311.5 1207.5,1311.5 1186.5,1311.5C 1186.5,1332.5 1186.5,1353.5 1186.5,1374.5C 1144.83,1374.5 1103.17,1374.5 1061.5,1374.5C 1061.5,1353.5 1061.5,1332.5 1061.5,1311.5C 1082.5,1311.5 1103.5,1311.5 1124.5,1311.5C 1124.5,1290.83 1124.5,1270.17 1124.5,1249.5C 1145.17,1249.5 1165.83,1249.5 1186.5,1249.5C 1186.5,1228.5 1186.5,1207.5 1186.5,1186.5C 1207.5,1186.5 1228.5,1186.5 1249.5,1186.5C 1249.5,1165.83 1249.5,1145.17 1249.5,1124.5C 1270.17,1124.5 1290.83,1124.5 1311.5,1124.5C 1311.5,1103.5 1311.5,1082.5 1311.5,1061.5C 1332.5,1061.5 1353.5,1061.5 1374.5,1061.5C 1374.5,1040.83 1374.5,1020.17 1374.5,999.5C 1395.17,999.5 1415.83,999.5 1436.5,999.5C 1436.5,978.5 1436.5,957.5 1436.5,936.5C 1457.5,936.5 1478.5,936.5 1499.5,936.5C 1499.5,915.833 1499.5,895.167 1499.5,874.5C 1520.17,874.5 1540.83,874.5 1561.5,874.5C 1561.5,853.5 1561.5,832.5 1561.5,811.5C 1582.5,811.5 1603.5,811.5 1624.5,811.5C 1624.5,790.833 1624.5,770.167 1624.5,749.5C 1645.17,749.5 1665.83,749.5 1686.5,749.5C 1686.5,728.5 1686.5,707.5 1686.5,686.5C 1707.5,686.5 1728.5,686.5 1749.5,686.5C 1749.5,665.833 1749.5,645.167 1749.5,624.5 Z"/></g>
<g><path style="opacity:1" fill="#000061" d="M 1811.5,624.5 C 1832.5,624.5 1853.5,624.5 1874.5,624.5C 1874.5,645.167 1874.5,665.833 1874.5,686.5C 1853.5,686.5 1832.5,686.5 1811.5,686.5C 1811.5,665.833 1811.5,645.167 1811.5,624.5 Z"/></g>
<g><path style="opacity:1" fill="#000096" d="M 1874.5,624.5 C 1895.17,624.5 1915.83,624.5 1936.5,624.5C 1936.5,645.167 1936.5,665.833 1936.5,686.5C 1915.83,686.5 1895.17,686.5 1874.5,686.5C 1874.5,665.833 1874.5,645.167 1874.5,624.5 Z"/></g>
<g><path style="opacity:1" fill="#677675" d="M 499.5,686.5 C 520.167,686.5 540.833,686.5 561.5,686.5C 561.5,707.5 561.5,728.5 561.5,749.5C 540.833,749.5 520.167,749.5 499.5,749.5C 499.5,728.5 499.5,707.5 499.5,686.5 Z"/></g>
<g><path style="opacity:1" fill="#bfbfbf" d="M 561.5,686.5 C 582.5,686.5 603.5,686.5 624.5,686.5C 624.5,769.833 624.5,853.167 624.5,936.5C 603.5,936.5 582.5,936.5 561.5,936.5C 561.5,915.833 561.5,895.167 561.5,874.5C 561.5,832.833 561.5,791.167 561.5,749.5C 561.5,728.5 561.5,707.5 561.5,686.5 Z"/></g>
<g><path style="opacity:1" fill="#fefffe" d="M 624.5,686.5 C 645.167,686.5 665.833,686.5 686.5,686.5C 686.5,728.167 686.5,769.833 686.5,811.5C 707.5,811.5 728.5,811.5 749.5,811.5C 749.5,832.5 749.5,853.5 749.5,874.5C 770.167,874.5 790.833,874.5 811.5,874.5C 811.5,936.833 811.5,999.167 811.5,1061.5C 790.833,1061.5 770.167,1061.5 749.5,1061.5C 728.5,1061.5 707.5,1061.5 686.5,1061.5C 686.5,1040.83 686.5,1020.17 686.5,999.5C 665.833,999.5 645.167,999.5 624.5,999.5C 624.5,978.5 624.5,957.5 624.5,936.5C 624.5,853.167 624.5,769.833 624.5,686.5 Z"/></g>
<g><path style="opacity:1" fill="#5e8f8e" d="M 936.5,686.5 C 936.5,707.5 936.5,728.5 936.5,749.5C 915.833,749.5 895.167,749.5 874.5,749.5C 874.5,728.5 874.5,707.5 874.5,686.5C 895.167,686.5 915.833,686.5 936.5,686.5 Z"/></g>
<g><path style="opacity:1" fill="#4c4d4c" d="M 1311.5,686.5 C 1311.5,707.5 1311.5,728.5 1311.5,749.5C 1290.83,749.5 1270.17,749.5 1249.5,749.5C 1249.5,728.5 1249.5,707.5 1249.5,686.5C 1270.17,686.5 1290.83,686.5 1311.5,686.5 Z"/></g>
<g><path style="opacity:1" fill="#fefffe" d="M 1311.5,686.5 C 1332.5,686.5 1353.5,686.5 1374.5,686.5C 1374.5,728.167 1374.5,769.833 1374.5,811.5C 1374.5,832.5 1374.5,853.5 1374.5,874.5C 1374.5,895.167 1374.5,915.833 1374.5,936.5C 1353.5,936.5 1332.5,936.5 1311.5,936.5C 1311.5,957.5 1311.5,978.5 1311.5,999.5C 1290.83,999.5 1270.17,999.5 1249.5,999.5C 1249.5,916.167 1249.5,832.833 1249.5,749.5C 1270.17,749.5 1290.83,749.5 1311.5,749.5C 1311.5,728.5 1311.5,707.5 1311.5,686.5 Z"/></g>
<g><path style="opacity:1" fill="#696969" d="M 1374.5,686.5 C 1395.17,686.5 1415.83,686.5 1436.5,686.5C 1436.5,728.167 1436.5,769.833 1436.5,811.5C 1415.83,811.5 1395.17,811.5 1374.5,811.5C 1374.5,769.833 1374.5,728.167 1374.5,686.5 Z"/></g>
<g><path style="opacity:1" fill="#d7d8c2" d="M 1499.5,686.5 C 1520.17,686.5 1540.83,686.5 1561.5,686.5C 1561.5,707.5 1561.5,728.5 1561.5,749.5C 1540.83,749.5 1520.17,749.5 1499.5,749.5C 1499.5,728.5 1499.5,707.5 1499.5,686.5 Z"/></g>
<g><path style="opacity:1" fill="#00008a" d="M 1561.5,686.5 C 1582.5,686.5 1603.5,686.5 1624.5,686.5C 1624.5,707.5 1624.5,728.5 1624.5,749.5C 1603.5,749.5 1582.5,749.5 1561.5,749.5C 1561.5,728.5 1561.5,707.5 1561.5,686.5 Z"/></g>
<g><path style="opacity:1" fill="#feff00" d="M 1624.5,686.5 C 1645.17,686.5 1665.83,686.5 1686.5,686.5C 1686.5,707.5 1686.5,728.5 1686.5,749.5C 1665.83,749.5 1645.17,749.5 1624.5,749.5C 1624.5,728.5 1624.5,707.5 1624.5,686.5 Z"/></g>
<g><path style="opacity:1" fill="#000085" d="M 1811.5,686.5 C 1832.5,686.5 1853.5,686.5 1874.5,686.5C 1874.5,707.5 1874.5,728.5 1874.5,749.5C 1853.5,749.5 1832.5,749.5 1811.5,749.5C 1811.5,728.5 1811.5,707.5 1811.5,686.5 Z"/></g>
<g><path style="opacity:1" fill="#000000" d="M 1874.5,686.5 C 1895.17,686.5 1915.83,686.5 1936.5,686.5C 1936.5,707.5 1936.5,728.5 1936.5,749.5C 1915.83,749.5 1895.17,749.5 1874.5,749.5C 1874.5,728.5 1874.5,707.5 1874.5,686.5 Z"/></g>
<g><path style="opacity:1" fill="#676867" d="M 499.5,749.5 C 520.167,749.5 540.833,749.5 561.5,749.5C 561.5,791.167 561.5,832.833 561.5,874.5C 540.833,874.5 520.167,874.5 499.5,874.5C 499.5,832.833 499.5,791.167 499.5,749.5 Z"/></g>
<g><path style="opacity:1" fill="#609f9e" d="M 874.5,749.5 C 874.5,770.167 874.5,790.833 874.5,811.5C 853.5,811.5 832.5,811.5 811.5,811.5C 811.5,790.833 811.5,770.167 811.5,749.5C 832.5,749.5 853.5,749.5 874.5,749.5 Z"/></g>
<g><path style="opacity:1" fill="#707271" d="M 874.5,749.5 C 895.167,749.5 915.833,749.5 936.5,749.5C 936.5,770.167 936.5,790.833 936.5,811.5C 915.833,811.5 895.167,811.5 874.5,811.5C 874.5,790.833 874.5,770.167 874.5,749.5 Z"/></g>
<g><path style="opacity:1" fill="#616261" d="M 936.5,749.5 C 1019.83,749.5 1103.17,749.5 1186.5,749.5C 1186.5,770.167 1186.5,790.833 1186.5,811.5C 1103.17,811.5 1019.83,811.5 936.5,811.5C 936.5,790.833 936.5,770.167 936.5,749.5 Z"/></g>
<g><path style="opacity:1" fill="#686868" d="M 1186.5,749.5 C 1207.5,749.5 1228.5,749.5 1249.5,749.5C 1249.5,832.833 1249.5,916.167 1249.5,999.5C 1228.5,999.5 1207.5,999.5 1186.5,999.5C 1186.5,936.833 1186.5,874.167 1186.5,811.5C 1186.5,790.833 1186.5,770.167 1186.5,749.5 Z"/></g>
<g><path style="opacity:1" fill="#00004b" d="M 1499.5,749.5 C 1520.17,749.5 1540.83,749.5 1561.5,749.5C 1561.5,770.167 1561.5,790.833 1561.5,811.5C 1540.83,811.5 1520.17,811.5 1499.5,811.5C 1499.5,790.833 1499.5,770.167 1499.5,749.5 Z"/></g>
<g><path style="opacity:1" fill="#fefffe" d="M 1561.5,749.5 C 1582.5,749.5 1603.5,749.5 1624.5,749.5C 1624.5,770.167 1624.5,790.833 1624.5,811.5C 1603.5,811.5 1582.5,811.5 1561.5,811.5C 1561.5,790.833 1561.5,770.167 1561.5,749.5 Z"/></g>
<g><path style="opacity:1" fill="#00007c" d="M 1811.5,749.5 C 1811.5,770.167 1811.5,790.833 1811.5,811.5C 1790.83,811.5 1770.17,811.5 1749.5,811.5C 1749.5,790.833 1749.5,770.167 1749.5,749.5C 1770.17,749.5 1790.83,749.5 1811.5,749.5 Z"/></g>
<g><path style="opacity:1" fill="#000000" d="M 1811.5,749.5 C 1832.5,749.5 1853.5,749.5 1874.5,749.5C 1874.5,770.167 1874.5,790.833 1874.5,811.5C 1853.5,811.5 1832.5,811.5 1811.5,811.5C 1811.5,790.833 1811.5,770.167 1811.5,749.5 Z"/></g>
<g><path style="opacity:1" fill="#5f7f7e" d="M 811.5,811.5 C 832.5,811.5 853.5,811.5 874.5,811.5C 874.5,832.5 874.5,853.5 874.5,874.5C 853.5,874.5 832.5,874.5 811.5,874.5C 811.5,853.5 811.5,832.5 811.5,811.5 Z"/></g>
<g><path style="opacity:1" fill="#fefffe" d="M 874.5,811.5 C 895.167,811.5 915.833,811.5 936.5,811.5C 1019.83,811.5 1103.17,811.5 1186.5,811.5C 1186.5,874.167 1186.5,936.833 1186.5,999.5C 1186.5,1020.17 1186.5,1040.83 1186.5,1061.5C 1186.5,1082.5 1186.5,1103.5 1186.5,1124.5C 1165.83,1124.5 1145.17,1124.5 1124.5,1124.5C 1124.5,1145.17 1124.5,1165.83 1124.5,1186.5C 1103.5,1186.5 1082.5,1186.5 1061.5,1186.5C 1040.83,1186.5 1020.17,1186.5 999.5,1186.5C 957.833,1186.5 916.167,1186.5 874.5,1186.5C 874.5,1165.83 874.5,1145.17 874.5,1124.5C 874.5,1103.5 874.5,1082.5 874.5,1061.5C 874.5,999.167 874.5,936.833 874.5,874.5C 874.5,853.5 874.5,832.5 874.5,811.5 Z"/></g>
<g><path style="opacity:1" fill="#898a72" d="M 1374.5,811.5 C 1395.17,811.5 1415.83,811.5 1436.5,811.5C 1436.5,832.5 1436.5,853.5 1436.5,874.5C 1415.83,874.5 1395.17,874.5 1374.5,874.5C 1374.5,853.5 1374.5,832.5 1374.5,811.5 Z"/></g>
<g><path style="opacity:1" fill="#00006e" d="M 1436.5,811.5 C 1457.5,811.5 1478.5,811.5 1499.5,811.5C 1499.5,832.5 1499.5,853.5 1499.5,874.5C 1478.5,874.5 1457.5,874.5 1436.5,874.5C 1436.5,853.5 1436.5,832.5 1436.5,811.5 Z"/></g>
<g><path style="opacity:1" fill="#fefffe" d="M 1499.5,811.5 C 1520.17,811.5 1540.83,811.5 1561.5,811.5C 1561.5,832.5 1561.5,853.5 1561.5,874.5C 1540.83,874.5 1520.17,874.5 1499.5,874.5C 1499.5,853.5 1499.5,832.5 1499.5,811.5 Z"/></g>
<g><path style="opacity:1" fill="#000077" d="M 1749.5,811.5 C 1749.5,832.5 1749.5,853.5 1749.5,874.5C 1728.5,874.5 1707.5,874.5 1686.5,874.5C 1686.5,853.5 1686.5,832.5 1686.5,811.5C 1707.5,811.5 1728.5,811.5 1749.5,811.5 Z"/></g>
<g><path style="opacity:1" fill="#000000" d="M 1749.5,811.5 C 1770.17,811.5 1790.83,811.5 1811.5,811.5C 1811.5,832.5 1811.5,853.5 1811.5,874.5C 1790.83,874.5 1770.17,874.5 1749.5,874.5C 1749.5,853.5 1749.5,832.5 1749.5,811.5 Z"/></g>
<g><path style="opacity:1" fill="#726972" d="M 499.5,874.5 C 520.167,874.5 540.833,874.5 561.5,874.5C 561.5,895.167 561.5,915.833 561.5,936.5C 540.833,936.5 520.167,936.5 499.5,936.5C 499.5,915.833 499.5,895.167 499.5,874.5 Z"/></g>
<g><path style="opacity:1" fill="#606060" d="M 811.5,874.5 C 832.5,874.5 853.5,874.5 874.5,874.5C 874.5,936.833 874.5,999.167 874.5,1061.5C 853.5,1061.5 832.5,1061.5 811.5,1061.5C 811.5,999.167 811.5,936.833 811.5,874.5 Z"/></g>
<g><path style="opacity:1" fill="#000074" d="M 1374.5,874.5 C 1395.17,874.5 1415.83,874.5 1436.5,874.5C 1436.5,895.167 1436.5,915.833 1436.5,936.5C 1415.83,936.5 1395.17,936.5 1374.5,936.5C 1374.5,915.833 1374.5,895.167 1374.5,874.5 Z"/></g>
<g><path style="opacity:1" fill="#feff00" d="M 1436.5,874.5 C 1457.5,874.5 1478.5,874.5 1499.5,874.5C 1499.5,895.167 1499.5,915.833 1499.5,936.5C 1478.5,936.5 1457.5,936.5 1436.5,936.5C 1436.5,915.833 1436.5,895.167 1436.5,874.5 Z"/></g>
<g><path style="opacity:1" fill="#00007b" d="M 1686.5,874.5 C 1686.5,895.167 1686.5,915.833 1686.5,936.5C 1665.83,936.5 1645.17,936.5 1624.5,936.5C 1624.5,915.833 1624.5,895.167 1624.5,874.5C 1645.17,874.5 1665.83,874.5 1686.5,874.5 Z"/></g>
<g><path style="opacity:1" fill="#000000" d="M 1686.5,874.5 C 1707.5,874.5 1728.5,874.5 1749.5,874.5C 1749.5,895.167 1749.5,915.833 1749.5,936.5C 1728.5,936.5 1707.5,936.5 1686.5,936.5C 1686.5,915.833 1686.5,895.167 1686.5,874.5 Z"/></g>
<g><path style="opacity:1" fill="#846784" d="M 311.5,936.5 C 311.5,957.5 311.5,978.5 311.5,999.5C 290.833,999.5 270.167,999.5 249.5,999.5C 249.5,978.5 249.5,957.5 249.5,936.5C 270.167,936.5 290.833,936.5 311.5,936.5 Z"/></g>
<g><path style="opacity:1" fill="#006700" d="M 311.5,936.5 C 332.5,936.5 353.5,936.5 374.5,936.5C 374.5,957.5 374.5,978.5 374.5,999.5C 353.5,999.5 332.5,999.5 311.5,999.5C 311.5,978.5 311.5,957.5 311.5,936.5 Z"/></g>
<g><path style="opacity:1" fill="#006000" d="M 374.5,936.5 C 416.167,936.5 457.833,936.5 499.5,936.5C 499.5,957.5 499.5,978.5 499.5,999.5C 478.5,999.5 457.5,999.5 436.5,999.5C 415.833,999.5 395.167,999.5 374.5,999.5C 374.5,978.5 374.5,957.5 374.5,936.5 Z"/></g>
<g><path style="opacity:1" fill="#006f00" d="M 499.5,936.5 C 520.167,936.5 540.833,936.5 561.5,936.5C 561.5,957.5 561.5,978.5 561.5,999.5C 540.833,999.5 520.167,999.5 499.5,999.5C 499.5,978.5 499.5,957.5 499.5,936.5 Z"/></g>
<g><path style="opacity:1" fill="#866b86" d="M 561.5,936.5 C 582.5,936.5 603.5,936.5 624.5,936.5C 624.5,957.5 624.5,978.5 624.5,999.5C 603.5,999.5 582.5,999.5 561.5,999.5C 561.5,978.5 561.5,957.5 561.5,936.5 Z"/></g>
<g><path style="opacity:1" fill="#000041" d="M 1374.5,936.5 C 1374.5,957.5 1374.5,978.5 1374.5,999.5C 1353.5,999.5 1332.5,999.5 1311.5,999.5C 1311.5,978.5 1311.5,957.5 1311.5,936.5C 1332.5,936.5 1353.5,936.5 1374.5,936.5 Z"/></g>
<g><path style="opacity:1" fill="#fefffe" d="M 1374.5,936.5 C 1395.17,936.5 1415.83,936.5 1436.5,936.5C 1436.5,957.5 1436.5,978.5 1436.5,999.5C 1415.83,999.5 1395.17,999.5 1374.5,999.5C 1374.5,978.5 1374.5,957.5 1374.5,936.5 Z"/></g>
<g><path style="opacity:1" fill="#000081" d="M 1624.5,936.5 C 1624.5,957.5 1624.5,978.5 1624.5,999.5C 1603.5,999.5 1582.5,999.5 1561.5,999.5C 1561.5,978.5 1561.5,957.5 1561.5,936.5C 1582.5,936.5 1603.5,936.5 1624.5,936.5 Z"/></g>
<g><path style="opacity:1" fill="#000000" d="M 1624.5,936.5 C 1645.17,936.5 1665.83,936.5 1686.5,936.5C 1686.5,957.5 1686.5,978.5 1686.5,999.5C 1665.83,999.5 1645.17,999.5 1624.5,999.5C 1624.5,978.5 1624.5,957.5 1624.5,936.5 Z"/></g>
<g><path style="opacity:1" fill="#006100" d="M 249.5,999.5 C 249.5,1020.17 249.5,1040.83 249.5,1061.5C 228.5,1061.5 207.5,1061.5 186.5,1061.5C 186.5,1040.83 186.5,1020.17 186.5,999.5C 207.5,999.5 228.5,999.5 249.5,999.5 Z"/></g>
<g><path style="opacity:1" fill="#007500" d="M 249.5,999.5 C 270.167,999.5 290.833,999.5 311.5,999.5C 311.5,1020.17 311.5,1040.83 311.5,1061.5C 290.833,1061.5 270.167,1061.5 249.5,1061.5C 249.5,1040.83 249.5,1020.17 249.5,999.5 Z"/></g>
<g><path style="opacity:1" fill="#e6c4fe" d="M 311.5,999.5 C 332.5,999.5 353.5,999.5 374.5,999.5C 374.5,1020.17 374.5,1040.83 374.5,1061.5C 353.5,1061.5 332.5,1061.5 311.5,1061.5C 311.5,1040.83 311.5,1020.17 311.5,999.5 Z"/></g>
<g><path style="opacity:1" fill="#feff00" d="M 374.5,999.5 C 395.167,999.5 415.833,999.5 436.5,999.5C 436.5,1020.17 436.5,1040.83 436.5,1061.5C 415.833,1061.5 395.167,1061.5 374.5,1061.5C 374.5,1040.83 374.5,1020.17 374.5,999.5 Z"/></g>
<g><path style="opacity:1" fill="#00ff00" d="M 436.5,999.5 C 457.5,999.5 478.5,999.5 499.5,999.5C 520.167,999.5 540.833,999.5 561.5,999.5C 561.5,1020.17 561.5,1040.83 561.5,1061.5C 582.5,1061.5 603.5,1061.5 624.5,1061.5C 624.5,1082.5 624.5,1103.5 624.5,1124.5C 624.5,1186.83 624.5,1249.17 624.5,1311.5C 603.5,1311.5 582.5,1311.5 561.5,1311.5C 561.5,1332.5 561.5,1353.5 561.5,1374.5C 540.833,1374.5 520.167,1374.5 499.5,1374.5C 499.5,1395.17 499.5,1415.83 499.5,1436.5C 457.833,1436.5 416.167,1436.5 374.5,1436.5C 374.5,1415.83 374.5,1395.17 374.5,1374.5C 353.5,1374.5 332.5,1374.5 311.5,1374.5C 311.5,1291.17 311.5,1207.83 311.5,1124.5C 332.5,1124.5 353.5,1124.5 374.5,1124.5C 374.5,1103.5 374.5,1082.5 374.5,1061.5C 395.167,1061.5 415.833,1061.5 436.5,1061.5C 436.5,1040.83 436.5,1020.17 436.5,999.5 Z"/></g>
<g><path style="opacity:1" fill="#006f00" d="M 561.5,999.5 C 582.5,999.5 603.5,999.5 624.5,999.5C 624.5,1020.17 624.5,1040.83 624.5,1061.5C 603.5,1061.5 582.5,1061.5 561.5,1061.5C 561.5,1040.83 561.5,1020.17 561.5,999.5 Z"/></g>
<g><path style="opacity:1" fill="#005f00" d="M 624.5,999.5 C 645.167,999.5 665.833,999.5 686.5,999.5C 686.5,1020.17 686.5,1040.83 686.5,1061.5C 665.833,1061.5 645.167,1061.5 624.5,1061.5C 624.5,1040.83 624.5,1020.17 624.5,999.5 Z"/></g>
<g><path style="opacity:1" fill="#7a7b70" d="M 1186.5,999.5 C 1207.5,999.5 1228.5,999.5 1249.5,999.5C 1249.5,1020.17 1249.5,1040.83 1249.5,1061.5C 1228.5,1061.5 1207.5,1061.5 1186.5,1061.5C 1186.5,1040.83 1186.5,1020.17 1186.5,999.5 Z"/></g>
<g><path style="opacity:1" fill="#000066" d="M 1249.5,999.5 C 1270.17,999.5 1290.83,999.5 1311.5,999.5C 1311.5,1020.17 1311.5,1040.83 1311.5,1061.5C 1290.83,1061.5 1270.17,1061.5 1249.5,1061.5C 1249.5,1040.83 1249.5,1020.17 1249.5,999.5 Z"/></g>
<g><path style="opacity:1" fill="#fefffe" d="M 1311.5,999.5 C 1332.5,999.5 1353.5,999.5 1374.5,999.5C 1374.5,1020.17 1374.5,1040.83 1374.5,1061.5C 1353.5,1061.5 1332.5,1061.5 1311.5,1061.5C 1311.5,1040.83 1311.5,1020.17 1311.5,999.5 Z"/></g>
<g><path style="opacity:1" fill="#000074" d="M 1561.5,999.5 C 1561.5,1020.17 1561.5,1040.83 1561.5,1061.5C 1540.83,1061.5 1520.17,1061.5 1499.5,1061.5C 1499.5,1040.83 1499.5,1020.17 1499.5,999.5C 1520.17,999.5 1540.83,999.5 1561.5,999.5 Z"/></g>
<g><path style="opacity:1" fill="#000000" d="M 1561.5,999.5 C 1582.5,999.5 1603.5,999.5 1624.5,999.5C 1624.5,1332.83 1624.5,1666.17 1624.5,1999.5C 1082.83,1999.5 541.167,1999.5 -0.5,1999.5C -0.5,1978.5 -0.5,1957.5 -0.5,1936.5C 20.1667,1936.5 40.8333,1936.5 61.5,1936.5C 540.833,1936.5 1020.17,1936.5 1499.5,1936.5C 1520.17,1936.5 1540.83,1936.5 1561.5,1936.5C 1561.5,1915.83 1561.5,1895.17 1561.5,1874.5C 1561.5,1645.17 1561.5,1415.83 1561.5,1186.5C 1561.5,1165.83 1561.5,1145.17 1561.5,1124.5C 1540.83,1124.5 1520.17,1124.5 1499.5,1124.5C 1499.5,1103.5 1499.5,1082.5 1499.5,1061.5C 1520.17,1061.5 1540.83,1061.5 1561.5,1061.5C 1561.5,1040.83 1561.5,1020.17 1561.5,999.5 Z"/></g>
<g><path style="opacity:1" fill="#7c617c" d="M 186.5,1061.5 C 186.5,1082.5 186.5,1103.5 186.5,1124.5C 165.833,1124.5 145.167,1124.5 124.5,1124.5C 124.5,1103.5 124.5,1082.5 124.5,1061.5C 145.167,1061.5 165.833,1061.5 186.5,1061.5 Z"/></g>
<g><path style="opacity:1" fill="#007200" d="M 186.5,1061.5 C 207.5,1061.5 228.5,1061.5 249.5,1061.5C 249.5,1082.5 249.5,1103.5 249.5,1124.5C 228.5,1124.5 207.5,1124.5 186.5,1124.5C 186.5,1103.5 186.5,1082.5 186.5,1061.5 Z"/></g>
<g><path style="opacity:1" fill="#d4befe" d="M 249.5,1061.5 C 270.167,1061.5 290.833,1061.5 311.5,1061.5C 311.5,1082.5 311.5,1103.5 311.5,1124.5C 290.833,1124.5 270.167,1124.5 249.5,1124.5C 249.5,1103.5 249.5,1082.5 249.5,1061.5 Z"/></g>
<g><path style="opacity:1" fill="#feff00" d="M 311.5,1061.5 C 332.5,1061.5 353.5,1061.5 374.5,1061.5C 374.5,1082.5 374.5,1103.5 374.5,1124.5C 353.5,1124.5 332.5,1124.5 311.5,1124.5C 311.5,1103.5 311.5,1082.5 311.5,1061.5 Z"/></g>
<g><path style="opacity:1" fill="#007000" d="M 624.5,1061.5 C 645.167,1061.5 665.833,1061.5 686.5,1061.5C 686.5,1082.5 686.5,1103.5 686.5,1124.5C 665.833,1124.5 645.167,1124.5 624.5,1124.5C 624.5,1103.5 624.5,1082.5 624.5,1061.5 Z"/></g>
<g><path style="opacity:1" fill="#8a7c8a" d="M 686.5,1061.5 C 707.5,1061.5 728.5,1061.5 749.5,1061.5C 749.5,1082.5 749.5,1103.5 749.5,1124.5C 728.5,1124.5 707.5,1124.5 686.5,1124.5C 686.5,1103.5 686.5,1082.5 686.5,1061.5 Z"/></g>
<g><path style="opacity:1" fill="#656665" d="M 749.5,1061.5 C 770.167,1061.5 790.833,1061.5 811.5,1061.5C 811.5,1082.5 811.5,1103.5 811.5,1124.5C 790.833,1124.5 770.167,1124.5 749.5,1124.5C 749.5,1103.5 749.5,1082.5 749.5,1061.5 Z"/></g>
<g><path style="opacity:1" fill="#6f706f" d="M 811.5,1061.5 C 832.5,1061.5 853.5,1061.5 874.5,1061.5C 874.5,1082.5 874.5,1103.5 874.5,1124.5C 853.5,1124.5 832.5,1124.5 811.5,1124.5C 811.5,1103.5 811.5,1082.5 811.5,1061.5 Z"/></g>
<g><path style="opacity:1" fill="#00006d" d="M 1186.5,1061.5 C 1207.5,1061.5 1228.5,1061.5 1249.5,1061.5C 1249.5,1082.5 1249.5,1103.5 1249.5,1124.5C 1228.5,1124.5 1207.5,1124.5 1186.5,1124.5C 1186.5,1103.5 1186.5,1082.5 1186.5,1061.5 Z"/></g>
<g><path style="opacity:1" fill="#feff00" d="M 1249.5,1061.5 C 1270.17,1061.5 1290.83,1061.5 1311.5,1061.5C 1311.5,1082.5 1311.5,1103.5 1311.5,1124.5C 1290.83,1124.5 1270.17,1124.5 1249.5,1124.5C 1249.5,1103.5 1249.5,1082.5 1249.5,1061.5 Z"/></g>
<g><path style="opacity:1" fill="#00007d" d="M 1499.5,1061.5 C 1499.5,1082.5 1499.5,1103.5 1499.5,1124.5C 1478.5,1124.5 1457.5,1124.5 1436.5,1124.5C 1436.5,1103.5 1436.5,1082.5 1436.5,1061.5C 1457.5,1061.5 1478.5,1061.5 1499.5,1061.5 Z"/></g>
<g><path style="opacity:1" fill="#006800" d="M 124.5,1124.5 C 145.167,1124.5 165.833,1124.5 186.5,1124.5C 186.5,1145.17 186.5,1165.83 186.5,1186.5C 186.5,1228.17 186.5,1269.83 186.5,1311.5C 186.5,1332.5 186.5,1353.5 186.5,1374.5C 165.833,1374.5 145.167,1374.5 124.5,1374.5C 124.5,1291.17 124.5,1207.83 124.5,1124.5 Z"/></g>
<g><path style="opacity:1" fill="#e4c6fe" d="M 186.5,1124.5 C 207.5,1124.5 228.5,1124.5 249.5,1124.5C 249.5,1145.17 249.5,1165.83 249.5,1186.5C 228.5,1186.5 207.5,1186.5 186.5,1186.5C 186.5,1165.83 186.5,1145.17 186.5,1124.5 Z"/></g>
<g><path style="opacity:1" fill="#feff00" d="M 249.5,1124.5 C 270.167,1124.5 290.833,1124.5 311.5,1124.5C 311.5,1207.83 311.5,1291.17 311.5,1374.5C 290.833,1374.5 270.167,1374.5 249.5,1374.5C 249.5,1353.5 249.5,1332.5 249.5,1311.5C 249.5,1269.83 249.5,1228.17 249.5,1186.5C 249.5,1165.83 249.5,1145.17 249.5,1124.5 Z"/></g>
<g><path style="opacity:1" fill="#008000" d="M 624.5,1124.5 C 645.167,1124.5 665.833,1124.5 686.5,1124.5C 686.5,1186.83 686.5,1249.17 686.5,1311.5C 665.833,1311.5 645.167,1311.5 624.5,1311.5C 624.5,1249.17 624.5,1186.83 624.5,1124.5 Z"/></g>
<g><path style="opacity:1" fill="#000000" d="M 686.5,1124.5 C 707.5,1124.5 728.5,1124.5 749.5,1124.5C 749.5,1207.83 749.5,1291.17 749.5,1374.5C 728.5,1374.5 707.5,1374.5 686.5,1374.5C 686.5,1353.5 686.5,1332.5 686.5,1311.5C 686.5,1249.17 686.5,1186.83 686.5,1124.5 Z"/></g>
<g><path style="opacity:1" fill="#606160" d="M 811.5,1124.5 C 832.5,1124.5 853.5,1124.5 874.5,1124.5C 874.5,1145.17 874.5,1165.83 874.5,1186.5C 853.5,1186.5 832.5,1186.5 811.5,1186.5C 811.5,1165.83 811.5,1145.17 811.5,1124.5 Z"/></g>
<g><path style="opacity:1" fill="#000041" d="M 1186.5,1124.5 C 1186.5,1145.17 1186.5,1165.83 1186.5,1186.5C 1165.83,1186.5 1145.17,1186.5 1124.5,1186.5C 1124.5,1165.83 1124.5,1145.17 1124.5,1124.5C 1145.17,1124.5 1165.83,1124.5 1186.5,1124.5 Z"/></g>
<g><path style="opacity:1" fill="#fefffe" d="M 1186.5,1124.5 C 1207.5,1124.5 1228.5,1124.5 1249.5,1124.5C 1249.5,1145.17 1249.5,1165.83 1249.5,1186.5C 1228.5,1186.5 1207.5,1186.5 1186.5,1186.5C 1186.5,1165.83 1186.5,1145.17 1186.5,1124.5 Z"/></g>
<g><path style="opacity:1" fill="#00007c" d="M 1436.5,1124.5 C 1436.5,1145.17 1436.5,1165.83 1436.5,1186.5C 1415.83,1186.5 1395.17,1186.5 1374.5,1186.5C 1374.5,1165.83 1374.5,1145.17 1374.5,1124.5C 1395.17,1124.5 1415.83,1124.5 1436.5,1124.5 Z"/></g>
<g><path style="opacity:1" fill="#000000" d="M 1436.5,1124.5 C 1457.5,1124.5 1478.5,1124.5 1499.5,1124.5C 1499.5,1145.17 1499.5,1165.83 1499.5,1186.5C 1478.5,1186.5 1457.5,1186.5 1436.5,1186.5C 1436.5,1165.83 1436.5,1145.17 1436.5,1124.5 Z"/></g>
<g><path style="opacity:1" fill="#fefffe" d="M 1499.5,1124.5 C 1520.17,1124.5 1540.83,1124.5 1561.5,1124.5C 1561.5,1145.17 1561.5,1165.83 1561.5,1186.5C 1540.83,1186.5 1520.17,1186.5 1499.5,1186.5C 1499.5,1165.83 1499.5,1145.17 1499.5,1124.5 Z"/></g>
<g><path style="opacity:1" fill="#cdbfeb" d="M 186.5,1186.5 C 207.5,1186.5 228.5,1186.5 249.5,1186.5C 249.5,1228.17 249.5,1269.83 249.5,1311.5C 228.5,1311.5 207.5,1311.5 186.5,1311.5C 186.5,1269.83 186.5,1228.17 186.5,1186.5 Z"/></g>
<g><path style="opacity:1" fill="#696969" d="M 811.5,1186.5 C 832.5,1186.5 853.5,1186.5 874.5,1186.5C 916.167,1186.5 957.833,1186.5 999.5,1186.5C 999.5,1207.5 999.5,1228.5 999.5,1249.5C 936.833,1249.5 874.167,1249.5 811.5,1249.5C 811.5,1228.5 811.5,1207.5 811.5,1186.5 Z"/></g>
<g><path style="opacity:1" fill="#858670" d="M 999.5,1186.5 C 1020.17,1186.5 1040.83,1186.5 1061.5,1186.5C 1061.5,1207.5 1061.5,1228.5 1061.5,1249.5C 1040.83,1249.5 1020.17,1249.5 999.5,1249.5C 999.5,1228.5 999.5,1207.5 999.5,1186.5 Z"/></g>
<g><path style="opacity:1" fill="#00006d" d="M 1061.5,1186.5 C 1082.5,1186.5 1103.5,1186.5 1124.5,1186.5C 1124.5,1207.5 1124.5,1228.5 1124.5,1249.5C 1103.5,1249.5 1082.5,1249.5 1061.5,1249.5C 1061.5,1228.5 1061.5,1207.5 1061.5,1186.5 Z"/></g>
<g><path style="opacity:1" fill="#fefffe" d="M 1124.5,1186.5 C 1145.17,1186.5 1165.83,1186.5 1186.5,1186.5C 1186.5,1207.5 1186.5,1228.5 1186.5,1249.5C 1165.83,1249.5 1145.17,1249.5 1124.5,1249.5C 1124.5,1228.5 1124.5,1207.5 1124.5,1186.5 Z"/></g>
<g><path style="opacity:1" fill="#000077" d="M 1374.5,1186.5 C 1374.5,1207.5 1374.5,1228.5 1374.5,1249.5C 1353.5,1249.5 1332.5,1249.5 1311.5,1249.5C 1311.5,1228.5 1311.5,1207.5 1311.5,1186.5C 1332.5,1186.5 1353.5,1186.5 1374.5,1186.5 Z"/></g>
<g><path style="opacity:1" fill="#000000" d="M 1374.5,1186.5 C 1395.17,1186.5 1415.83,1186.5 1436.5,1186.5C 1436.5,1207.5 1436.5,1228.5 1436.5,1249.5C 1415.83,1249.5 1395.17,1249.5 1374.5,1249.5C 1374.5,1228.5 1374.5,1207.5 1374.5,1186.5 Z"/></g>
<g><path style="opacity:1" fill="#cecece" d="M 1499.5,1186.5 C 1520.17,1186.5 1540.83,1186.5 1561.5,1186.5C 1561.5,1415.83 1561.5,1645.17 1561.5,1874.5C 1540.83,1874.5 1520.17,1874.5 1499.5,1874.5C 1499.5,1645.17 1499.5,1415.83 1499.5,1186.5 Z"/></g>
<g><path style="opacity:1" fill="#00007e" d="M 999.5,1249.5 C 1020.17,1249.5 1040.83,1249.5 1061.5,1249.5C 1061.5,1270.17 1061.5,1290.83 1061.5,1311.5C 1040.83,1311.5 1020.17,1311.5 999.5,1311.5C 999.5,1290.83 999.5,1270.17 999.5,1249.5 Z"/></g>
<g><path style="opacity:1" fill="#feff00" d="M 1061.5,1249.5 C 1082.5,1249.5 1103.5,1249.5 1124.5,1249.5C 1124.5,1270.17 1124.5,1290.83 1124.5,1311.5C 1103.5,1311.5 1082.5,1311.5 1061.5,1311.5C 1061.5,1290.83 1061.5,1270.17 1061.5,1249.5 Z"/></g>
<g><path style="opacity:1" fill="#00007d" d="M 1311.5,1249.5 C 1311.5,1270.17 1311.5,1290.83 1311.5,1311.5C 1290.83,1311.5 1270.17,1311.5 1249.5,1311.5C 1249.5,1290.83 1249.5,1270.17 1249.5,1249.5C 1270.17,1249.5 1290.83,1249.5 1311.5,1249.5 Z"/></g>
<g><path style="opacity:1" fill="#000000" d="M 1311.5,1249.5 C 1332.5,1249.5 1353.5,1249.5 1374.5,1249.5C 1374.5,1270.17 1374.5,1290.83 1374.5,1311.5C 1353.5,1311.5 1332.5,1311.5 1311.5,1311.5C 1311.5,1290.83 1311.5,1270.17 1311.5,1249.5 Z"/></g>
<g><path style="opacity:1" fill="#e4c6fe" d="M 186.5,1311.5 C 207.5,1311.5 228.5,1311.5 249.5,1311.5C 249.5,1332.5 249.5,1353.5 249.5,1374.5C 228.5,1374.5 207.5,1374.5 186.5,1374.5C 186.5,1353.5 186.5,1332.5 186.5,1311.5 Z"/></g>
<g><path style="opacity:1" fill="#006700" d="M 624.5,1311.5 C 624.5,1332.5 624.5,1353.5 624.5,1374.5C 603.5,1374.5 582.5,1374.5 561.5,1374.5C 561.5,1353.5 561.5,1332.5 561.5,1311.5C 582.5,1311.5 603.5,1311.5 624.5,1311.5 Z"/></g>
<g><path style="opacity:1" fill="#009f00" d="M 624.5,1311.5 C 645.167,1311.5 665.833,1311.5 686.5,1311.5C 686.5,1332.5 686.5,1353.5 686.5,1374.5C 665.833,1374.5 645.167,1374.5 624.5,1374.5C 624.5,1353.5 624.5,1332.5 624.5,1311.5 Z"/></g>
<g><path style="opacity:1" fill="#505170" d="M 999.5,1311.5 C 999.5,1332.5 999.5,1353.5 999.5,1374.5C 978.5,1374.5 957.5,1374.5 936.5,1374.5C 936.5,1353.5 936.5,1332.5 936.5,1311.5C 957.5,1311.5 978.5,1311.5 999.5,1311.5 Z"/></g>
<g><path style="opacity:1" fill="#969767" d="M 999.5,1311.5 C 1020.17,1311.5 1040.83,1311.5 1061.5,1311.5C 1061.5,1332.5 1061.5,1353.5 1061.5,1374.5C 1040.83,1374.5 1020.17,1374.5 999.5,1374.5C 999.5,1353.5 999.5,1332.5 999.5,1311.5 Z"/></g>
<g><path style="opacity:1" fill="#000078" d="M 1249.5,1311.5 C 1249.5,1332.5 1249.5,1353.5 1249.5,1374.5C 1228.5,1374.5 1207.5,1374.5 1186.5,1374.5C 1186.5,1353.5 1186.5,1332.5 1186.5,1311.5C 1207.5,1311.5 1228.5,1311.5 1249.5,1311.5 Z"/></g>
<g><path style="opacity:1" fill="#000000" d="M 1249.5,1311.5 C 1270.17,1311.5 1290.83,1311.5 1311.5,1311.5C 1311.5,1332.5 1311.5,1353.5 1311.5,1374.5C 1290.83,1374.5 1270.17,1374.5 1249.5,1374.5C 1249.5,1353.5 1249.5,1332.5 1249.5,1311.5 Z"/></g>
<g><path style="opacity:1" fill="#816781" d="M 124.5,1374.5 C 145.167,1374.5 165.833,1374.5 186.5,1374.5C 186.5,1395.17 186.5,1415.83 186.5,1436.5C 165.833,1436.5 145.167,1436.5 124.5,1436.5C 124.5,1415.83 124.5,1395.17 124.5,1374.5 Z"/></g>
<g><path style="opacity:1" fill="#007100" d="M 186.5,1374.5 C 207.5,1374.5 228.5,1374.5 249.5,1374.5C 249.5,1395.17 249.5,1415.83 249.5,1436.5C 228.5,1436.5 207.5,1436.5 186.5,1436.5C 186.5,1415.83 186.5,1395.17 186.5,1374.5 Z"/></g>
<g><path style="opacity:1" fill="#cebcff" d="M 249.5,1374.5 C 270.167,1374.5 290.833,1374.5 311.5,1374.5C 311.5,1395.17 311.5,1415.83 311.5,1436.5C 290.833,1436.5 270.167,1436.5 249.5,1436.5C 249.5,1415.83 249.5,1395.17 249.5,1374.5 Z"/></g>
<g><path style="opacity:1" fill="#feff00" d="M 311.5,1374.5 C 332.5,1374.5 353.5,1374.5 374.5,1374.5C 374.5,1395.17 374.5,1415.83 374.5,1436.5C 353.5,1436.5 332.5,1436.5 311.5,1436.5C 311.5,1415.83 311.5,1395.17 311.5,1374.5 Z"/></g>
<g><path style="opacity:1" fill="#006500" d="M 561.5,1374.5 C 561.5,1395.17 561.5,1415.83 561.5,1436.5C 540.833,1436.5 520.167,1436.5 499.5,1436.5C 499.5,1415.83 499.5,1395.17 499.5,1374.5C 520.167,1374.5 540.833,1374.5 561.5,1374.5 Z"/></g>
<g><path style="opacity:1" fill="#009400" d="M 561.5,1374.5 C 582.5,1374.5 603.5,1374.5 624.5,1374.5C 624.5,1395.17 624.5,1415.83 624.5,1436.5C 603.5,1436.5 582.5,1436.5 561.5,1436.5C 561.5,1415.83 561.5,1395.17 561.5,1374.5 Z"/></g>
<g><path style="opacity:1" fill="#000000" d="M 624.5,1374.5 C 645.167,1374.5 665.833,1374.5 686.5,1374.5C 686.5,1395.17 686.5,1415.83 686.5,1436.5C 686.5,1457.5 686.5,1478.5 686.5,1499.5C 665.833,1499.5 645.167,1499.5 624.5,1499.5C 603.5,1499.5 582.5,1499.5 561.5,1499.5C 561.5,1478.5 561.5,1457.5 561.5,1436.5C 582.5,1436.5 603.5,1436.5 624.5,1436.5C 624.5,1415.83 624.5,1395.17 624.5,1374.5 Z"/></g>
<g><path style="opacity:1" fill="#808180" d="M 686.5,1374.5 C 707.5,1374.5 728.5,1374.5 749.5,1374.5C 749.5,1395.17 749.5,1415.83 749.5,1436.5C 728.5,1436.5 707.5,1436.5 686.5,1436.5C 686.5,1415.83 686.5,1395.17 686.5,1374.5 Z"/></g>
<g><path style="opacity:1" fill="#5f6074" d="M 936.5,1374.5 C 936.5,1416.17 936.5,1457.83 936.5,1499.5C 915.833,1499.5 895.167,1499.5 874.5,1499.5C 874.5,1457.83 874.5,1416.17 874.5,1374.5C 895.167,1374.5 915.833,1374.5 936.5,1374.5 Z"/></g>
<g><path style="opacity:1" fill="#feff00" d="M 936.5,1374.5 C 957.5,1374.5 978.5,1374.5 999.5,1374.5C 999.5,1395.17 999.5,1415.83 999.5,1436.5C 999.5,1457.5 999.5,1478.5 999.5,1499.5C 978.5,1499.5 957.5,1499.5 936.5,1499.5C 936.5,1457.83 936.5,1416.17 936.5,1374.5 Z"/></g>
<g><path style="opacity:1" fill="#d4d5f2" d="M 999.5,1374.5 C 1020.17,1374.5 1040.83,1374.5 1061.5,1374.5C 1061.5,1395.17 1061.5,1415.83 1061.5,1436.5C 1040.83,1436.5 1020.17,1436.5 999.5,1436.5C 999.5,1415.83 999.5,1395.17 999.5,1374.5 Z"/></g>
<g><path style="opacity:1" fill="#000000" d="M 1061.5,1374.5 C 1103.17,1374.5 1144.83,1374.5 1186.5,1374.5C 1207.5,1374.5 1228.5,1374.5 1249.5,1374.5C 1249.5,1395.17 1249.5,1415.83 1249.5,1436.5C 1228.5,1436.5 1207.5,1436.5 1186.5,1436.5C 1186.5,1478.17 1186.5,1519.83 1186.5,1561.5C 1165.83,1561.5 1145.17,1561.5 1124.5,1561.5C 1124.5,1519.83 1124.5,1478.17 1124.5,1436.5C 1103.5,1436.5 1082.5,1436.5 1061.5,1436.5C 1061.5,1415.83 1061.5,1395.17 1061.5,1374.5 Z"/></g>
<g><path style="opacity:1" fill="#006100" d="M 186.5,1436.5 C 207.5,1436.5 228.5,1436.5 249.5,1436.5C 249.5,1457.5 249.5,1478.5 249.5,1499.5C 228.5,1499.5 207.5,1499.5 186.5,1499.5C 186.5,1478.5 186.5,1457.5 186.5,1436.5 Z"/></g>
<g><path style="opacity:1" fill="#007600" d="M 249.5,1436.5 C 270.167,1436.5 290.833,1436.5 311.5,1436.5C 311.5,1457.5 311.5,1478.5 311.5,1499.5C 290.833,1499.5 270.167,1499.5 249.5,1499.5C 249.5,1478.5 249.5,1457.5 249.5,1436.5 Z"/></g>
<g><path style="opacity:1" fill="#007e00" d="M 311.5,1436.5 C 332.5,1436.5 353.5,1436.5 374.5,1436.5C 416.167,1436.5 457.833,1436.5 499.5,1436.5C 499.5,1457.5 499.5,1478.5 499.5,1499.5C 436.833,1499.5 374.167,1499.5 311.5,1499.5C 311.5,1478.5 311.5,1457.5 311.5,1436.5 Z"/></g>
<g><path style="opacity:1" fill="#009d00" d="M 499.5,1436.5 C 520.167,1436.5 540.833,1436.5 561.5,1436.5C 561.5,1457.5 561.5,1478.5 561.5,1499.5C 540.833,1499.5 520.167,1499.5 499.5,1499.5C 499.5,1478.5 499.5,1457.5 499.5,1436.5 Z"/></g>
<g><path style="opacity:1" fill="#c7c9e8" d="M 999.5,1436.5 C 1020.17,1436.5 1040.83,1436.5 1061.5,1436.5C 1061.5,1457.5 1061.5,1478.5 1061.5,1499.5C 1040.83,1499.5 1020.17,1499.5 999.5,1499.5C 999.5,1478.5 999.5,1457.5 999.5,1436.5 Z"/></g>
<g><path style="opacity:1" fill="#8d7e8d" d="M 249.5,1499.5 C 270.167,1499.5 290.833,1499.5 311.5,1499.5C 311.5,1520.17 311.5,1540.83 311.5,1561.5C 290.833,1561.5 270.167,1561.5 249.5,1561.5C 249.5,1540.83 249.5,1520.17 249.5,1499.5 Z"/></g>
<g><path style="opacity:1" fill="#000000" d="M 311.5,1499.5 C 374.167,1499.5 436.833,1499.5 499.5,1499.5C 520.167,1499.5 540.833,1499.5 561.5,1499.5C 561.5,1520.17 561.5,1540.83 561.5,1561.5C 478.167,1561.5 394.833,1561.5 311.5,1561.5C 311.5,1540.83 311.5,1520.17 311.5,1499.5 Z"/></g>
<g><path style="opacity:1" fill="#868787" d="M 561.5,1499.5 C 582.5,1499.5 603.5,1499.5 624.5,1499.5C 624.5,1520.17 624.5,1540.83 624.5,1561.5C 603.5,1561.5 582.5,1561.5 561.5,1561.5C 561.5,1540.83 561.5,1520.17 561.5,1499.5 Z"/></g>
<g><path style="opacity:1" fill="#545956" d="M 874.5,1499.5 C 874.5,1520.17 874.5,1540.83 874.5,1561.5C 853.5,1561.5 832.5,1561.5 811.5,1561.5C 811.5,1540.83 811.5,1520.17 811.5,1499.5C 832.5,1499.5 853.5,1499.5 874.5,1499.5 Z"/></g>
<g><path style="opacity:1" fill="#c9d6cc" d="M 874.5,1499.5 C 895.167,1499.5 915.833,1499.5 936.5,1499.5C 936.5,1520.17 936.5,1540.83 936.5,1561.5C 915.833,1561.5 895.167,1561.5 874.5,1561.5C 874.5,1540.83 874.5,1520.17 874.5,1499.5 Z"/></g>
<g><path style="opacity:1" fill="#bccae8" d="M 936.5,1499.5 C 957.5,1499.5 978.5,1499.5 999.5,1499.5C 999.5,1520.17 999.5,1540.83 999.5,1561.5C 978.5,1561.5 957.5,1561.5 936.5,1561.5C 936.5,1540.83 936.5,1520.17 936.5,1499.5 Z"/></g>
<g><path style="opacity:1" fill="#707877" d="M 999.5,1499.5 C 1020.17,1499.5 1040.83,1499.5 1061.5,1499.5C 1061.5,1520.17 1061.5,1540.83 1061.5,1561.5C 1040.83,1561.5 1020.17,1561.5 999.5,1561.5C 999.5,1540.83 999.5,1520.17 999.5,1499.5 Z"/></g>
<g><path style="opacity:1" fill="#909191" d="M 1061.5,1436.5 C 1082.5,1436.5 1103.5,1436.5 1124.5,1436.5C 1124.5,1478.17 1124.5,1519.83 1124.5,1561.5C 1103.5,1561.5 1082.5,1561.5 1061.5,1561.5C 1061.5,1540.83 1061.5,1520.17 1061.5,1499.5C 1061.5,1478.5 1061.5,1457.5 1061.5,1436.5 Z"/></g>
<g><path style="opacity:1" fill="#550000" d="M 811.5,1561.5 C 811.5,1582.5 811.5,1603.5 811.5,1624.5C 790.833,1624.5 770.167,1624.5 749.5,1624.5C 749.5,1603.5 749.5,1582.5 749.5,1561.5C 770.167,1561.5 790.833,1561.5 811.5,1561.5 Z"/></g>
<g><path style="opacity:1" fill="#bfffe8" d="M 811.5,1561.5 C 832.5,1561.5 853.5,1561.5 874.5,1561.5C 874.5,1582.5 874.5,1603.5 874.5,1624.5C 853.5,1624.5 832.5,1624.5 811.5,1624.5C 811.5,1603.5 811.5,1582.5 811.5,1561.5 Z"/></g>
<g><path style="opacity:1" fill="#fe00ff" d="M 874.5,1561.5 C 895.167,1561.5 915.833,1561.5 936.5,1561.5C 936.5,1582.5 936.5,1603.5 936.5,1624.5C 915.833,1624.5 895.167,1624.5 874.5,1624.5C 874.5,1603.5 874.5,1582.5 874.5,1561.5 Z"/></g>
<g><path style="opacity:1" fill="#fe0000" d="M 936.5,1561.5 C 957.5,1561.5 978.5,1561.5 999.5,1561.5C 999.5,1582.5 999.5,1603.5 999.5,1624.5C 978.5,1624.5 957.5,1624.5 936.5,1624.5C 936.5,1603.5 936.5,1582.5 936.5,1561.5 Z"/></g>
<g><path style="opacity:1" fill="#890000" d="M 999.5,1561.5 C 1020.17,1561.5 1040.83,1561.5 1061.5,1561.5C 1061.5,1582.5 1061.5,1603.5 1061.5,1624.5C 1040.83,1624.5 1020.17,1624.5 999.5,1624.5C 999.5,1603.5 999.5,1582.5 999.5,1561.5 Z"/></g>
<g><path style="opacity:1" fill="#000000" d="M 1061.5,1561.5 C 1082.5,1561.5 1103.5,1561.5 1124.5,1561.5C 1124.5,1582.5 1124.5,1603.5 1124.5,1624.5C 1103.5,1624.5 1082.5,1624.5 1061.5,1624.5C 1061.5,1603.5 1061.5,1582.5 1061.5,1561.5 Z"/></g>
<g><path style="opacity:1" fill="#fe0000" d="M 686.5,1624.5 C 686.5,1645.17 686.5,1665.83 686.5,1686.5C 665.833,1686.5 645.167,1686.5 624.5,1686.5C 603.5,1686.5 582.5,1686.5 561.5,1686.5C 561.5,1707.5 561.5,1728.5 561.5,1749.5C 540.833,1749.5 520.167,1749.5 499.5,1749.5C 478.5,1749.5 457.5,1749.5 436.5,1749.5C 415.833,1749.5 395.167,1749.5 374.5,1749.5C 374.5,1728.5 374.5,1707.5 374.5,1686.5C 395.167,1686.5 415.833,1686.5 436.5,1686.5C 436.5,1665.83 436.5,1645.17 436.5,1624.5C 519.833,1624.5 603.167,1624.5 686.5,1624.5 Z"/></g>
<g><path style="opacity:1" fill="#510000" d="M 686.5,1624.5 C 707.5,1624.5 728.5,1624.5 749.5,1624.5C 749.5,1645.17 749.5,1665.83 749.5,1686.5C 728.5,1686.5 707.5,1686.5 686.5,1686.5C 686.5,1665.83 686.5,1645.17 686.5,1624.5 Z"/></g>
<g><path style="opacity:1" fill="#fe0000" d="M 749.5,1624.5 C 770.167,1624.5 790.833,1624.5 811.5,1624.5C 832.5,1624.5 853.5,1624.5 874.5,1624.5C 895.167,1624.5 915.833,1624.5 936.5,1624.5C 936.5,1645.17 936.5,1665.83 936.5,1686.5C 874.167,1686.5 811.833,1686.5 749.5,1686.5C 749.5,1665.83 749.5,1645.17 749.5,1624.5 Z"/></g>
<g><path style="opacity:1" fill="#7e0000" d="M 936.5,1624.5 C 957.5,1624.5 978.5,1624.5 999.5,1624.5C 999.5,1645.17 999.5,1665.83 999.5,1686.5C 978.5,1686.5 957.5,1686.5 936.5,1686.5C 936.5,1665.83 936.5,1645.17 936.5,1624.5 Z"/></g>
<g><path style="opacity:1" fill="#000000" d="M 999.5,1624.5 C 1020.17,1624.5 1040.83,1624.5 1061.5,1624.5C 1061.5,1645.17 1061.5,1665.83 1061.5,1686.5C 1040.83,1686.5 1020.17,1686.5 999.5,1686.5C 999.5,1665.83 999.5,1645.17 999.5,1624.5 Z"/></g>
<g><path style="opacity:1" fill="#4a0000" d="M 374.5,1686.5 C 374.5,1707.5 374.5,1728.5 374.5,1749.5C 353.5,1749.5 332.5,1749.5 311.5,1749.5C 311.5,1728.5 311.5,1707.5 311.5,1686.5C 332.5,1686.5 353.5,1686.5 374.5,1686.5 Z"/></g>
<g><path style="opacity:1" fill="#5f0000" d="M 624.5,1686.5 C 624.5,1707.5 624.5,1728.5 624.5,1749.5C 603.5,1749.5 582.5,1749.5 561.5,1749.5C 561.5,1728.5 561.5,1707.5 561.5,1686.5C 582.5,1686.5 603.5,1686.5 624.5,1686.5 Z"/></g>
<g><path style="opacity:1" fill="#670000" d="M 624.5,1686.5 C 645.167,1686.5 665.833,1686.5 686.5,1686.5C 686.5,1707.5 686.5,1728.5 686.5,1749.5C 665.833,1749.5 645.167,1749.5 624.5,1749.5C 624.5,1728.5 624.5,1707.5 624.5,1686.5 Z"/></g>
<g><path style="opacity:1" fill="#830000" d="M 686.5,1686.5 C 707.5,1686.5 728.5,1686.5 749.5,1686.5C 749.5,1707.5 749.5,1728.5 749.5,1749.5C 728.5,1749.5 707.5,1749.5 686.5,1749.5C 686.5,1728.5 686.5,1707.5 686.5,1686.5 Z"/></g>
<g><path style="opacity:1" fill="#000000" d="M 749.5,1686.5 C 811.833,1686.5 874.167,1686.5 936.5,1686.5C 957.5,1686.5 978.5,1686.5 999.5,1686.5C 999.5,1707.5 999.5,1728.5 999.5,1749.5C 916.167,1749.5 832.833,1749.5 749.5,1749.5C 749.5,1728.5 749.5,1707.5 749.5,1686.5 Z"/></g>
<g><path style="opacity:1" fill="#560000" d="M 374.5,1749.5 C 395.167,1749.5 415.833,1749.5 436.5,1749.5C 436.5,1770.17 436.5,1790.83 436.5,1811.5C 415.833,1811.5 395.167,1811.5 374.5,1811.5C 374.5,1790.83 374.5,1770.17 374.5,1749.5 Z"/></g>
<g><path style="opacity:1" fill="#610000" d="M 436.5,1749.5 C 457.5,1749.5 478.5,1749.5 499.5,1749.5C 499.5,1770.17 499.5,1790.83 499.5,1811.5C 478.5,1811.5 457.5,1811.5 436.5,1811.5C 436.5,1790.83 436.5,1770.17 436.5,1749.5 Z"/></g>
<g><path style="opacity:1" fill="#520000" d="M 499.5,1749.5 C 520.167,1749.5 540.833,1749.5 561.5,1749.5C 561.5,1770.17 561.5,1790.83 561.5,1811.5C 540.833,1811.5 520.167,1811.5 499.5,1811.5C 499.5,1790.83 499.5,1770.17 499.5,1749.5 Z"/></g>
<g><path style="opacity:1" fill="#909190" d="M -0.5,1874.5 C 20.1667,1874.5 40.8333,1874.5 61.5,1874.5C 61.5,1895.17 61.5,1915.83 61.5,1936.5C 40.8333,1936.5 20.1667,1936.5 -0.5,1936.5C -0.5,1915.83 -0.5,1895.17 -0.5,1874.5 Z"/></g>
<g><path style="opacity:1" fill="#c9c9c9" d="M 61.5,1874.5 C 540.833,1874.5 1020.17,1874.5 1499.5,1874.5C 1499.5,1895.17 1499.5,1915.83 1499.5,1936.5C 1020.17,1936.5 540.833,1936.5 61.5,1936.5C 61.5,1915.83 61.5,1895.17 61.5,1874.5 Z"/></g>
<g><path style="opacity:1" fill="#e4e5e4" d="M 1499.5,1874.5 C 1520.17,1874.5 1540.83,1874.5 1561.5,1874.5C 1561.5,1895.17 1561.5,1915.83 1561.5,1936.5C 1540.83,1936.5 1520.17,1936.5 1499.5,1936.5C 1499.5,1915.83 1499.5,1895.17 1499.5,1874.5 Z"/></g>
</svg>
